<?xml version="1.0" encoding="UTF-8" standalone="no"?>
<svg
   xmlns:dc="http://purl.org/dc/elements/1.1/"
   xmlns:cc="http://creativecommons.org/ns#"
   xmlns:rdf="http://www.w3.org/1999/02/22-rdf-syntax-ns#"
   xmlns:svg="http://www.w3.org/2000/svg"
   xmlns="http://www.w3.org/2000/svg"
   viewBox="0 0 1174.7075 427.14999"
   height="427.14999"
   width="1174.7075"
   xml:space="preserve"
   version="1.1"
   id="svg2"><metadata
     id="metadata8"><rdf:RDF><cc:Work
         rdf:about=""><dc:format>image/svg+xml</dc:format><dc:type
           rdf:resource="http://purl.org/dc/dcmitype/StillImage" /></cc:Work></rdf:RDF></metadata><defs
     id="defs6"><clipPath
       id="clipPath16"
       clipPathUnits="userSpaceOnUse"><path
         id="path18"
         d="m 0,341.72 939.766,0 L 939.766,0 0,0 0,341.72 Z" /></clipPath></defs><g
     transform="matrix(1.25,0,0,-1.25,0,427.15)"
     id="g10"><g
       id="g12"><g
         clip-path="url(#clipPath16)"
         id="g14"><g
           transform="translate(779.7193,287.2364)"
           id="g20"><path
             id="path22"
             style="fill:#fec900;fill-opacity:1;fill-rule:evenodd;stroke:none"
             d="m 0,0 30.502,-0.108 c 3.007,5.801 6.767,11.067 11.068,15.684 4.402,4.728 9.449,8.917 14.929,12.246 5.473,3.33 11.494,6.016 17.72,7.733 6.123,1.72 12.571,2.685 19.014,2.685 l 0.216,0 c 4.722,-0.108 9.233,-0.535 13.636,-1.395 4.517,-0.86 8.921,-2.147 13.113,-3.973 4.295,-1.72 8.264,-3.868 12.138,-6.445 3.862,-2.686 7.519,-5.585 10.737,-8.917 1.829,-1.717 3.543,-3.651 5.263,-5.799 1.72,-2.15 3.224,-4.298 4.62,-6.445 1.395,-2.255 2.682,-4.511 3.759,-6.875 1.179,-2.364 2.147,-4.833 3.116,-7.305 0.108,-0.319 0.216,-0.752 0.216,-1.074 l 0,-0.322 0,-0.968 c -0.108,-0.319 -0.216,-0.752 -0.325,-1.073 -0.108,-0.431 -0.318,-0.749 -0.535,-1.075 l -0.108,-0.105 c -0.217,-0.216 -0.433,-0.538 -0.65,-0.754 -0.319,-0.319 -0.745,-0.536 -1.071,-0.749 -0.216,-0.109 -0.535,-0.217 -0.751,-0.217 -0.108,-0.105 -0.211,-0.105 -0.319,-0.105 l 0.108,0 c -0.433,-0.108 -0.866,-0.217 -1.293,-0.217 l -42.966,0 c -1.076,0 -2.153,-0.108 -3.332,-0.324 -1.07,-0.211 -2.147,-0.536 -3.115,-0.966 -0.963,-0.322 -1.925,-0.857 -2.899,-1.504 -0.855,-0.535 -1.715,-1.287 -2.575,-2.147 -0.752,-0.752 -1.504,-1.612 -2.153,-2.469 -0.536,-0.969 -1.071,-1.934 -1.498,-3.008 -0.433,-0.968 -0.752,-2.042 -0.969,-3.116 -0.216,-1.073 -0.325,-2.147 -0.325,-3.332 l 0,-0.213 c 0,-2.148 0.542,-4.19 1.294,-6.121 0.962,-2.041 2.147,-3.867 3.759,-5.479 1.612,-1.613 3.441,-2.9 5.582,-3.76 1.829,-0.752 3.868,-1.287 5.907,-1.287 l 0.324,0 0.433,0 42.424,0 0.109,0 c 0.427,0 0.752,-0.108 1.185,-0.108 0.319,-0.108 0.746,-0.325 1.07,-0.433 0.217,-0.106 0.433,-0.213 0.644,-0.427 0.108,-0.109 0.319,-0.217 0.427,-0.322 0.108,-0.108 0.217,-0.217 0.325,-0.322 0.325,-0.43 0.65,-0.86 0.86,-1.29 0,-0.109 0.108,-0.216 0.108,-0.322 0.109,-0.108 0.109,-0.214 0.109,-0.322 0.108,-0.321 0.216,-0.538 0.216,-0.751 l 0,-0.326 0,-0.965 c 0,-0.322 -0.108,-0.643 -0.216,-1.07 -2.473,-6.984 -6.021,-13.324 -10.316,-19.017 -4.403,-5.801 -9.66,-10.953 -15.573,-15.146 -5.907,-4.081 -12.457,-7.413 -19.338,-9.663 -6.761,-2.147 -13.961,-3.224 -21.371,-3.224 l 0,-0.108 0,0.108 c -4.722,0 -9.342,0.427 -13.745,1.288 -4.517,0.859 -8.92,2.255 -13.221,3.975 -4.186,1.721 -8.264,3.973 -12.132,6.551 -3.868,2.58 -7.417,5.479 -10.743,8.805 -1.293,1.185 -2.472,2.584 -3.76,4.085 -1.178,1.29 -2.255,2.689 -3.332,4.189 -1.179,1.504 -2.147,3.113 -3.11,4.62 -0.968,1.612 -1.93,3.113 -2.688,4.725 l -36.842,0.108 -4.084,8.379 41.034,-0.109 2.256,0 c 1.612,0.109 3.116,-0.751 3.976,-2.255 l 1.07,-2.148 c 0.752,-1.503 1.613,-2.899 2.473,-4.297 0.86,-1.399 1.714,-2.791 2.688,-4.081 0.854,-1.182 1.823,-2.364 3.008,-3.651 0.962,-1.182 2.039,-2.364 3.326,-3.655 2.9,-2.899 6.123,-5.584 9.342,-7.732 3.44,-2.256 6.989,-4.186 10.742,-5.801 3.658,-1.501 7.525,-2.683 11.603,-3.438 3.976,-0.752 8.054,-1.179 12.139,-1.179 6.556,0 12.781,0.966 18.797,2.899 6.123,1.931 11.927,4.833 17.082,8.485 5.149,3.653 9.768,8.165 13.744,13.32 2.797,3.759 5.155,7.84 7.2,12.138 l -37.593,0.108 0,-0.108 c -0.217,0 -0.542,0 -0.752,0.108 -3.224,0 -6.34,0.749 -9.137,1.934 -3.002,1.287 -5.799,3.221 -8.163,5.477 -2.357,2.364 -4.294,5.155 -5.582,8.271 -1.184,2.793 -1.828,5.798 -1.936,9.022 l 0,0.535 c 0,1.612 0.108,3.332 0.427,4.945 0.325,1.609 0.866,3.217 1.509,4.724 0.536,1.613 1.396,3.008 2.256,4.403 0.969,1.399 2.039,2.686 3.218,3.868 1.077,1.182 2.364,2.148 3.76,3.116 1.401,0.965 2.905,1.717 4.409,2.364 1.611,0.644 3.109,1.073 4.721,1.395 1.612,0.322 3.224,0.538 4.944,0.538 l 37.919,0 c -0.325,0.536 -0.649,1.179 -0.86,1.826 -1.077,2.042 -2.147,4.081 -3.441,6.015 -1.179,2.039 -2.58,3.868 -3.969,5.693 -1.396,1.714 -2.906,3.435 -4.62,5.155 -3.014,2.899 -6.129,5.585 -9.45,7.736 -3.44,2.255 -6.983,4.186 -10.742,5.798 -3.658,1.504 -7.519,2.685 -11.603,3.438 -3.76,0.752 -7.736,1.182 -11.603,1.182 l -0.535,0 c -5.799,0 -11.387,-0.753 -16.758,-2.364 C 70.995,25.888 65.738,23.633 60.902,20.626 56.066,17.727 51.663,14.072 47.693,9.883 43.927,5.802 40.601,1.077 37.912,-3.973 l -1.07,-2.255 C 36.09,-7.624 34.688,-8.484 33.083,-8.484 l -2.473,0 -29.323,0 C 1.07,-5.476 0.644,-2.682 0,0" /></g><g
           transform="translate(164.6633,287.2364)"
           id="g24"><path
             id="path26"
             style="fill:#fec900;fill-opacity:1;fill-rule:evenodd;stroke:none"
             d="m 0,0 -35.124,-0.108 c -2.9,5.801 -6.659,11.067 -10.957,15.684 -4.508,4.728 -9.561,8.917 -15.037,12.246 -5.477,3.33 -11.384,6.016 -17.615,7.733 -6.232,1.72 -12.569,2.685 -19.122,2.685 l -0.105,0 -0.108,0 c -4.62,-0.108 -9.131,-0.535 -13.534,-1.395 -4.511,-0.86 -8.918,-2.147 -13.212,-3.973 -4.19,-1.72 -8.271,-3.868 -12.138,-6.445 -3.868,-2.686 -7.411,-5.585 -10.743,-8.917 -1.721,-1.717 -3.543,-3.651 -5.261,-5.799 -1.612,-2.15 -3.118,-4.298 -4.514,-6.445 -1.395,-2.255 -2.682,-4.511 -3.867,-6.875 -1.179,-2.364 -2.147,-4.833 -3.005,-7.305 -0.108,-0.319 -0.217,-0.752 -0.321,-1.074 l 0,-0.322 c 0,-0.322 0,-0.643 0.104,-0.968 0,-0.319 0.109,-0.752 0.217,-1.073 0.214,-0.431 0.43,-0.749 0.644,-1.075 l 0,-0.105 c 0.214,-0.216 0.43,-0.538 0.752,-0.754 0.321,-0.319 0.646,-0.536 0.965,-0.749 0.322,-0.109 0.538,-0.217 0.86,-0.217 0,-0.105 0.108,-0.105 0.217,-0.105 0.319,-0.108 0.752,-0.217 1.287,-0.217 l 42.857,0 c 1.077,0 2.259,-0.108 3.332,-0.324 1.074,-0.211 2.147,-0.536 3.116,-0.966 1.071,-0.322 2.039,-0.857 2.899,-1.504 0.966,-0.535 1.823,-1.287 2.577,-2.147 0.858,-0.752 1.61,-1.612 2.148,-2.469 0.646,-0.969 1.182,-1.934 1.504,-3.008 0.43,-0.968 0.755,-2.042 0.968,-3.116 0.214,-1.073 0.322,-2.147 0.322,-3.332 l 0,-0.213 c 0,-2.148 -0.43,-4.19 -1.29,-6.121 -0.858,-2.041 -2.147,-3.867 -3.757,-5.479 -1.506,-1.613 -3.44,-2.9 -5.479,-3.76 -1.934,-0.752 -3.976,-1.287 -6.015,-1.287 l -0.325,0 -0.322,0 -42.535,0 -0.108,0 c -0.322,0 -0.752,-0.108 -1.071,-0.108 -0.433,-0.108 -0.863,-0.325 -1.185,-0.433 -0.214,-0.106 -0.319,-0.213 -0.535,-0.427 -0.217,-0.109 -0.322,-0.217 -0.43,-0.322 -0.105,-0.108 -0.214,-0.217 -0.322,-0.322 -0.43,-0.43 -0.752,-0.86 -0.968,-1.29 0,-0.109 0,-0.216 -0.106,-0.322 0,-0.108 -0.108,-0.214 -0.108,-0.322 -0.109,-0.321 -0.109,-0.538 -0.109,-0.751 -0.104,-0.109 -0.104,-0.214 -0.104,-0.326 l 0,-0.965 c 0.104,-0.322 0.213,-0.643 0.321,-1.07 2.469,-6.984 5.907,-13.324 10.204,-19.017 4.404,-5.801 9.667,-10.953 15.574,-15.146 5.909,-4.081 12.46,-7.413 19.443,-9.663 6.767,-2.147 13.964,-3.224 21.266,-3.224 l 0,-0.108 0,0.108 c 4.728,0 9.347,0.427 13.858,1.288 4.512,0.859 8.915,2.255 13.105,3.975 4.297,1.721 8.378,3.973 12.243,6.551 3.762,2.58 7.414,5.479 10.634,8.805 1.291,1.185 2.581,2.584 3.76,4.085 1.182,1.29 2.364,2.689 3.437,4.189 1.074,1.504 2.151,3.113 3.116,4.62 0.969,1.612 1.826,3.113 2.686,4.725 L 0,-64.661 l 0,8.379 -35.124,-0.109 -2.256,0 c -1.612,0.109 -3.221,-0.751 -3.976,-2.255 l -1.179,-2.148 c -0.752,-1.503 -1.504,-2.899 -2.364,-4.297 -0.86,-1.399 -1.825,-2.791 -2.685,-4.081 -0.966,-1.182 -1.934,-2.364 -3.005,-3.651 -0.969,-1.182 -2.151,-2.364 -3.333,-3.655 -3.007,-2.899 -6.123,-5.584 -9.452,-7.732 -3.437,-2.256 -6.98,-4.186 -10.634,-5.801 -3.76,-1.501 -7.625,-2.683 -11.6,-3.438 -4.085,-0.752 -8.163,-1.179 -12.247,-1.179 -6.442,0 -12.782,0.966 -18.797,2.899 -6.12,1.931 -11.813,4.833 -17.08,8.485 -5.151,3.653 -9.774,8.165 -13.638,13.32 -2.794,3.759 -5.263,7.84 -7.198,12.138 l 37.486,0.108 0,-0.108 c 0.322,0 0.539,0 0.755,0.108 3.221,0 6.337,0.749 9.128,1.934 3.116,1.287 5.906,3.221 8.273,5.477 2.256,2.364 4.187,5.155 5.477,8.271 1.182,2.793 1.934,5.798 2.039,9.022 l 0,0.535 c 0,1.612 -0.213,3.332 -0.535,4.945 -0.322,1.609 -0.752,3.217 -1.398,4.724 -0.644,1.613 -1.396,3.008 -2.364,4.403 -0.963,1.399 -1.931,2.686 -3.11,3.868 -1.185,1.182 -2.476,2.148 -3.871,3.116 -1.395,0.965 -2.902,1.717 -4.4,2.364 -1.507,0.644 -3.115,1.073 -4.728,1.395 -1.507,0.322 -3.224,0.538 -4.944,0.538 l -37.808,0 c 0.214,0.536 0.539,1.179 0.858,1.826 0.968,2.042 2.147,4.081 3.332,6.015 1.287,2.039 2.575,3.868 4.081,5.693 1.291,1.714 2.9,3.435 4.617,5.155 2.902,2.899 6.123,5.585 9.456,7.736 3.329,2.255 6.872,4.186 10.631,5.798 3.759,1.504 7.627,2.685 11.603,3.438 3.865,0.752 7.732,1.182 11.708,1.182 l 0.427,0 c 5.801,0 11.387,-0.753 16.758,-2.364 5.585,-1.505 10.743,-3.76 15.573,-6.767 4.836,-2.899 9.347,-6.554 13.215,-10.743 3.867,-4.081 7.193,-8.806 9.774,-13.856 l 1.179,-2.255 c 0.65,-1.396 2.042,-2.256 3.759,-2.256 l 2.473,0 L 0,-8.375 0,0 Z" /></g><g
           transform="translate(177.5567,185.6069)"
           id="g28"><path
             id="path30"
             style="fill:#ffffff;fill-opacity:1;fill-rule:nonzero;stroke:none"
             d="m 0,0 c -5.408,0 -7.786,2.388 -7.786,7.804 l 0,140.502 c 0,5.42 2.378,7.808 7.786,7.808 l 34.833,0 c 4.544,0 7.356,-1.736 9.952,-6.506 l 19.473,-35.344 c 1.513,-2.601 2.163,-3.684 3.895,-3.684 l 1.946,0 c 1.732,0 2.379,1.083 3.895,3.684 l 19.254,35.344 c 2.598,4.77 5.41,6.506 9.954,6.506 l 35.05,0 c 5.407,0 7.786,-2.388 7.786,-7.808 l 0,-140.502 C 146.038,2.388 143.659,0 138.252,0 l -33.32,0 c -5.624,0 -7.79,2.388 -7.79,7.804 l 0,76.322 L 84.379,60.493 C 81.783,55.507 78.538,53.555 72.911,53.555 l -8.653,0 c -5.627,0 -8.872,1.952 -11.467,6.938 l -12.764,23.633 0,-76.322 C 40.027,2.388 37.648,0 32.237,0 L 0,0 Z" /></g><g
           transform="translate(361.207,185.6069)"
           id="g32"><path
             id="path34"
             style="fill:#ffffff;fill-opacity:1;fill-rule:nonzero;stroke:none"
             d="m 0,0 c -5.408,0 -7.786,2.388 -7.786,7.804 l 0,140.502 c 0,5.42 2.378,7.808 7.786,7.808 l 100.387,0 c 5.411,0 7.79,-2.388 7.79,-7.808 l 0,-25.368 c 0,-5.42 -2.379,-7.805 -7.79,-7.805 l -59.711,0 0,-16.694 42.19,0 c 5.407,0 7.786,-2.385 7.786,-7.808 l 0,-23.2 c 0,-5.419 -2.379,-7.804 -7.786,-7.804 l -42.19,0 0,-18.647 59.711,0 c 5.411,0 7.79,-2.385 7.79,-7.807 l 0,-25.369 C 108.177,2.388 105.798,0 100.387,0 L 0,0 Z" /></g><g
           transform="translate(544.6527,185.6069)"
           id="g36"><path
             id="path38"
             style="fill:#ffffff;fill-opacity:1;fill-rule:nonzero;stroke:none"
             d="m 0,0 c -36.343,0 -53.221,14.093 -53.221,44.231 l 0,67.432 c 0,30.354 16.878,44.451 53.221,44.451 l 52.794,0 c 5.407,0 7.789,-2.388 7.789,-7.808 l 0,-26.234 c 0,-5.423 -2.382,-7.808 -7.789,-7.808 l -43.489,0 c -9.088,0 -13.197,-3.468 -13.197,-10.839 l 0,-51.606 c 0,-7.155 4.109,-10.406 13.197,-10.406 l 43.489,0 c 5.407,0 7.789,-2.385 7.789,-7.804 l 0,-25.805 C 60.583,2.388 58.201,0 52.794,0 L 0,0 Z" /></g><g
           transform="translate(637.4462,185.6069)"
           id="g40"><path
             id="path42"
             style="fill:#ffffff;fill-opacity:1;fill-rule:nonzero;stroke:none"
             d="m 0,0 c -5.407,0 -7.789,2.388 -7.789,7.804 l 0,140.502 c 0,5.42 2.382,7.808 7.789,7.808 l 33.534,0 c 5.407,0 7.789,-2.388 7.789,-7.808 l 0,-47.049 36.132,0 0,47.049 c 0,5.42 2.376,7.808 7.784,7.808 l 33.539,0 c 5.408,0 7.784,-2.388 7.784,-7.808 l 0,-140.502 C 126.562,2.388 124.186,0 118.778,0 L 85.239,0 c -5.408,0 -7.784,2.388 -7.784,7.804 l 0,48.136 -36.132,0 0,-48.136 C 41.323,2.388 38.941,0 33.534,0 L 0,0 Z" /></g><g
           transform="translate(185.1536,71.3579)"
           id="g44"><path
             id="path46"
             style="fill:#ffffff;fill-opacity:1;fill-rule:nonzero;stroke:none"
             d="M 0,0 -13.657,42.586 -26.514,0 0,0 Z m -22.093,88.385 22.496,0 50.216,-144.625 -31.335,0 -12.854,36.156 -40.574,0 -12.857,-36.156 -25.308,0 50.216,144.625 z" /></g><g
           transform="translate(294.8283,101.487)"
           id="g48"><path
             id="path50"
             style="fill:#ffffff;fill-opacity:1;fill-rule:nonzero;stroke:none"
             d="m 0,0 c -10.716,0 -16.069,-3.344 -16.069,-10.039 l 0,-48.21 c 0,-6.695 5.353,-10.045 16.069,-10.045 10.713,0 16.069,3.35 16.069,10.045 l 0,48.21 C 16.069,-3.344 10.713,0 0,0 m 16.069,-86.37 0,14.064 c 0,-10.719 -10.379,-16.073 -31.134,-16.073 -20.757,0 -31.133,8.704 -31.133,26.112 l 0,56.246 c 0,17.407 10.376,26.111 31.133,26.111 20.755,0 31.134,-5.359 31.134,-16.072 l 0,58.255 30.129,0 0,-148.643 -30.129,0 z" /></g><g
           transform="translate(419.7631,15.1175)"
           id="g52"><path
             id="path54"
             style="fill:#ffffff;fill-opacity:1;fill-rule:nonzero;stroke:none"
             d="m 0,0 -26.514,0 -39.368,104.451 33.344,0 21.693,-74.322 21.693,74.322 25.308,0 L 0,0 Z" /></g><path
           id="path56"
           style="fill:#ffffff;fill-opacity:1;fill-rule:nonzero;stroke:none"
           d="m 498.903,15.118 -30.126,0 0,104.451 30.126,0 0,-104.451 z m -15.062,122.525 c -11.116,0 -16.674,4.62 -16.674,13.859 0,9.245 5.558,13.864 16.674,13.864 11.11,0 16.668,-4.619 16.668,-13.864 0,-9.239 -5.558,-13.859 -16.668,-13.859" /><g
           transform="translate(561.1639,79.3939)"
           id="g58"><path
             id="path60"
             style="fill:#ffffff;fill-opacity:1;fill-rule:nonzero;stroke:none"
             d="m 0,0 c 30.803,-2.568 46.201,-11.278 46.201,-26.111 l 0,-14.063 c 0,-17.408 -15.398,-26.111 -46.201,-26.111 -30.797,0 -46.195,8.703 -46.195,26.111 l 0,12.054 30.129,0 0,-8.036 c 0,-6.695 5.353,-10.045 16.066,-10.045 10.713,0 16.072,3.35 16.072,10.045 l 0,2.009 c 0,5.997 -5.359,9.75 -16.072,11.248 -29.456,3.001 -44.186,12.643 -44.186,28.926 l 0,10.045 c 0,17.408 14.73,26.111 44.186,26.111 29.462,0 44.192,-8.703 44.192,-26.111 l 0,-12.054 -30.129,0 0,8.036 c 0,6.695 -4.686,10.039 -14.063,10.039 -9.371,0 -14.057,-3.344 -14.057,-10.039 l 0,-2.009 C -14.057,4.794 -9.371,1.444 0,0" /></g><g
           transform="translate(731.9059,119.5681)"
           id="g62"><path
             id="path64"
             style="fill:#ffffff;fill-opacity:1;fill-rule:nonzero;stroke:none"
             d="m 0,0 30.129,0 0,-14.063 c 0,10.713 8.566,16.072 25.708,16.072 17.143,0 25.714,-8.704 25.714,-26.111 l 0,-12.054 -30.129,0 0,8.036 c 0,6.695 -3.549,10.039 -10.646,10.039 -7.098,0 -10.647,-3.344 -10.647,-10.039 l 0,-76.331 -30.129,0 L 0,0 Z" /></g><g
           transform="translate(725.2976,86.6851)"
           id="g66"><path
             id="path68"
             style="fill:#9b9797;fill-opacity:1;fill-rule:nonzero;stroke:none"
             d="m 0,0 c 2.466,-1.398 5.48,-2.15 8.589,-2.15 2.364,0 3.976,-1.501 4.193,-3.543 0.644,-5.479 0.644,-11.062 0.108,-16.541 -0.217,-2.043 -2.688,-3.546 -4.836,-3.546 -6.231,0.108 -12.354,-3.76 -14.821,-9.988 -2.58,-6.123 -0.969,-13.32 3.97,-17.94 1.612,-1.396 1.829,-3.76 0.433,-5.371 -3.332,-4.295 -7.2,-8.268 -11.392,-11.6 -1.715,-1.395 -4.078,-1.179 -5.582,0.43 -4.295,4.724 -12.03,6.553 -18.045,3.976 -6.232,-2.578 -10.202,-8.917 -9.774,-15.684 0.107,-2.148 -1.498,-3.971 -3.543,-4.193 -2.797,-0.427 -5.589,-0.535 -8.379,-0.535 -2.689,0 -5.372,0.108 -7.946,0.427 -2.153,0.217 -3.657,2.045 -3.657,4.192 0.108,3.224 -0.753,6.449 -2.358,9.134 0.854,0.641 1.714,1.393 2.466,2.253 4.186,4.189 7.092,9.344 8.487,15.037 0.427,1.829 0.644,3.654 0.86,5.48 0.644,-0.108 1.288,-0.108 2.039,-0.108 19.976,0 36.09,16.114 36.09,36.09 0,0.647 0,1.29 -0.102,1.936 3.543,0.211 6.977,1.072 10.202,2.361 3.976,1.613 7.41,3.974 10.418,6.981 C -1.618,-1.933 -0.86,-1.074 0,0 m -131.265,-6.123 c 0.216,2.042 2.58,3.546 4.728,3.546 6.556,0 12.462,3.973 14.929,9.99 2.58,6.121 0.968,13.318 -3.97,17.935 -1.613,1.398 -1.829,3.759 -0.536,5.479 3.435,4.298 7.303,8.162 11.489,11.6 1.72,1.29 4.084,1.077 5.588,-0.535 4.295,-4.728 12.03,-6.554 18.045,-3.976 6.231,2.577 10.201,8.917 9.774,15.684 -0.108,2.15 1.504,3.973 3.543,4.297 5.48,0.536 10.959,0.644 16.331,0 2.147,-0.216 3.651,-2.041 3.651,-4.189 -0.108,-3.224 0.752,-6.445 2.358,-9.025 -0.854,-0.753 -1.715,-1.504 -2.466,-2.361 l -1.72,-1.612 0,-0.109 c -3.219,-3.864 -5.583,-8.375 -6.768,-13.32 -0.427,-1.826 -0.751,-3.651 -0.853,-5.368 l -2.046,0 c -19.975,0 -36.089,-16.111 -36.089,-36.093 l 0,-1.931 c -3.441,-0.217 -6.876,-1.077 -10.208,-2.364 -3.753,-1.612 -7.302,-3.973 -10.202,-6.875 l -0.108,-0.109 c -0.854,-0.856 -1.72,-1.825 -2.472,-2.79 -2.358,1.395 -5.047,2.147 -7.837,2.147 l -0.861,-0.108 c -2.039,-0.105 -3.976,1.504 -4.3,3.542 -0.638,5.48 -0.638,11.068 0,16.545" /></g><g
           transform="translate(632.0589,65.0947)"
           id="g70"><path
             id="path72"
             style="fill:#fec900;fill-opacity:1;fill-rule:evenodd;stroke:none"
             d="M 0,0 C 1.396,0 2.791,-0.108 4.084,-0.322 5.48,-0.536 6.875,-0.857 8.169,-1.29 l 0.962,-0.323 0.643,0.756 32.656,32.435 0.752,0.644 -0.325,0.968 c -1.497,4.725 -1.606,9.667 -0.535,14.394 1.179,4.62 3.549,8.915 6.983,12.461 2.473,2.469 5.372,4.402 8.589,5.693 3.123,1.287 6.557,1.931 10.1,1.931 1.936,0 3.97,-0.211 5.798,-0.644 1.937,-0.43 3.868,-1.07 5.588,-1.931 l 0.102,0 c 0,-0.108 0.109,-0.108 0.109,-0.216 l 0,-0.109 c -0.109,0 -0.109,-0.108 -0.109,-0.108 L 62.087,47.263 c -0.752,-0.861 -1.396,-1.718 -1.822,-2.794 -0.44,-0.966 -0.65,-2.043 -0.65,-3.222 0,-1.073 0.21,-2.147 0.65,-3.115 0.426,-1.074 1.07,-1.934 1.822,-2.794 1.612,-1.612 3.759,-2.361 5.907,-2.361 2.147,0 4.403,0.749 5.907,2.361 l 0.108,0 17.401,17.402 c 0,0.107 0,0.107 0.108,0.107 l 0.103,0 0.108,0 c 0.108,-0.107 0.108,-0.107 0.108,-0.216 2.472,-5.047 3.116,-10.526 2.262,-15.789 -0.969,-5.264 -3.44,-10.313 -7.416,-14.286 -2.467,-2.469 -5.372,-4.403 -8.488,-5.69 -3.224,-1.29 -6.658,-2.042 -10.093,-2.042 -1.504,0 -2.791,0.105 -4.192,0.321 -1.288,0.214 -2.683,0.536 -3.976,0.969 l -0.963,0.319 -0.644,-0.644 -32.655,-32.547 -0.746,-0.643 0.319,-0.966 c 1.498,-4.725 1.606,-9.669 0.536,-14.289 -1.179,-4.725 -3.543,-9.022 -6.984,-12.457 -2.466,-2.58 -5.371,-4.514 -8.595,-5.802 -3.116,-1.286 -6.551,-1.933 -10.094,-1.933 -1.931,0 -3.969,0.216 -5.798,0.647 -1.937,0.43 -3.867,1.073 -5.588,1.933 l -0.108,0 c -0.102,0.105 -0.102,0.105 -0.102,0.214 l 0,0.105 c 0,0.109 0.102,0.109 0.102,0.109 l 17.401,17.401 c 0.752,0.86 1.395,1.72 1.828,2.791 0.434,0.968 0.644,2.042 0.644,3.224 0,1.073 -0.21,2.147 -0.644,3.224 -0.433,0.965 -1.076,1.93 -1.828,2.686 -1.612,1.608 -3.759,2.36 -5.907,2.36 -2.147,0 -4.403,-0.752 -6.015,-2.36 l -17.401,-17.405 c 0,0 0,-0.105 -0.103,-0.105 l -0.107,0 c -0.109,0 -0.109,0 -0.109,0.105 -0.108,0 -0.108,0 -0.108,0.108 -2.472,5.05 -3.116,10.53 -2.256,15.79 0.962,5.371 3.435,10.313 7.411,14.285 2.466,2.473 5.371,4.406 8.487,5.697 C -6.875,-0.752 -3.434,0 0,0" /></g></g></g></g></svg>